<?xml version="1.0" standalone="no"?>
<!DOCTYPE svg PUBLIC "-//W3C//DTD SVG 20010904//EN"
 "http://www.w3.org/TR/2001/REC-SVG-20010904/DTD/svg10.dtd">
<svg version="1.0" xmlns="http://www.w3.org/2000/svg"
 width="628.000000pt" height="172.000000pt" viewBox="0 0 628.000000 172.000000"
 preserveAspectRatio="xMidYMid meet">

<g transform="translate(0.000000,172.000000) scale(0.100000,-0.100000)"
fill="#000000" stroke="none">
<path d="M0 860 l0 -860 3140 0 3140 0 0 860 0 860 -3140 0 -3140 0 0 -860z
m3010 -5 c0 -504 -2 -575 -15 -575 -13 0 -15 71 -15 575 0 504 2 575 15 575
13 0 15 -71 15 -575z m-2030 484 c106 -24 232 -110 296 -202 l19 -28 60 28
c84 38 192 39 285 0 60 -25 65 -25 74 -9 23 42 122 132 175 161 272 145 600
20 710 -271 9 -23 17 -28 43 -28 65 0 128 -66 128 -132 -1 -71 -63 -138 -129
-138 -27 0 -33 -7 -69 -83 -122 -250 -422 -349 -675 -221 -75 38 -177 145
-215 224 -32 68 -52 155 -52 226 0 35 -5 47 -31 68 -17 14 -42 29 -55 32 -45
11 -112 -2 -149 -30 -34 -26 -35 -28 -35 -99 0 -210 -157 -407 -365 -462 -230
-59 -472 53 -573 267 -33 69 -40 77 -65 78 -69 0 -127 63 -127 135 0 71 52
128 126 138 24 3 34 15 67 81 104 205 336 316 557 265z m3998 -126 l-3 -38
-67 -3 -68 -3 0 -169 0 -170 -50 0 -50 0 0 170 0 170 -65 0 -65 0 0 40 0 40
186 0 185 0 -3 -37z m366 8 c71 -35 106 -94 106 -180 0 -85 -27 -134 -94 -176
-48 -29 -54 -30 -188 -33 l-138 -4 0 212 0 212 133 -4 c115 -3 138 -6 181 -27z
m287 -121 c34 -82 65 -147 68 -145 2 3 32 69 66 148 l61 142 47 3 c26 2 47 2
47 0 0 -2 -40 -95 -89 -208 l-89 -205 -49 -3 -49 -3 -87 203 c-48 112 -87 206
-87 211 0 4 22 7 49 7 l48 0 64 -150z m-2161 31 c41 -21 80 -82 80 -128 l0
-33 -120 0 c-112 0 -120 -1 -120 -19 0 -44 85 -66 145 -39 23 10 29 9 52 -14
l25 -26 -23 -15 c-59 -39 -175 -38 -228 1 -68 50 -88 130 -52 204 42 87 145
116 241 69z m362 3 c47 -24 58 -60 58 -189 l0 -115 -40 0 c-34 0 -40 3 -40 22
l0 21 -22 -20 c-39 -36 -123 -35 -167 3 -24 20 -31 34 -31 63 0 66 57 101 163
101 52 0 61 14 28 44 -15 14 -32 17 -68 14 -26 -3 -56 -8 -65 -12 -12 -6 -21
0 -32 23 -15 29 -15 31 4 41 57 30 157 32 212 4z m375 5 c20 -7 21 -11 10 -39
-9 -24 -16 -30 -32 -25 -54 15 -101 16 -119 2 -33 -24 -13 -43 60 -57 81 -15
114 -42 114 -92 0 -45 -22 -74 -67 -89 -49 -16 -143 -14 -187 5 l-37 15 16 31
c12 23 21 30 33 25 74 -31 152 -26 152 10 0 18 -4 20 -84 35 -70 14 -106 44
-106 90 0 58 29 87 100 100 38 8 112 2 147 -11z m182 -95 c24 -58 47 -102 52
-97 4 4 25 51 47 103 l39 95 41 3 c23 2 42 -1 42 -6 0 -5 -36 -92 -80 -193
-97 -225 -113 -243 -202 -237 -73 5 -85 16 -64 57 14 26 20 30 36 21 29 -15
55 -12 75 10 17 19 16 22 -20 107 -21 49 -53 123 -71 166 l-33 77 47 0 48 0
43 -106z m-1099 -483 c15 -29 13 -31 -26 -31 -21 0 -33 -4 -29 -10 3 -5 18
-10 33 -10 24 -1 25 -2 9 -11 -23 -13 -67 13 -67 39 0 41 61 58 80 23z m110 9
c0 -5 -8 -9 -17 -7 -25 3 -28 -17 -3 -21 26 -4 26 -39 0 -47 -11 -3 -28 -2
-37 4 -16 9 -14 10 10 11 34 0 35 16 2 24 -24 6 -33 25 -18 39 10 11 63 8 63
-3z m130 -32 c0 -55 -15 -78 -50 -78 -40 0 -47 18 -8 22 17 2 34 9 36 17 3 9
0 11 -7 6 -7 -4 -23 -4 -37 -1 -18 5 -24 13 -24 35 0 33 10 39 58 38 31 0 32
-2 32 -39z m57 -25 c-2 -16 -4 -5 -4 22 0 28 2 40 4 28 2 -13 2 -35 0 -50z"/>
<path d="M755 1132 c-50 -23 -101 -80 -114 -126 -18 -67 16 -149 81 -196 104
-75 257 -76 341 -2 18 16 18 15 11 -13 -22 -92 -113 -176 -210 -197 -59 -13
-51 -19 23 -19 73 -1 117 17 173 68 149 133 125 369 -47 470 -63 36 -196 44
-258 15z"/>
<path d="M2042 1137 c-47 -18 -97 -60 -115 -100 -58 -121 48 -261 211 -283 55
-7 154 16 183 42 31 28 34 8 8 -47 -29 -62 -93 -121 -151 -138 -83 -25 -86
-30 -18 -30 78 -1 131 21 185 74 144 145 103 384 -80 471 -56 27 -164 32 -223
11z"/>
<path d="M5130 1040 l0 -130 74 0 c59 0 78 4 100 21 53 42 68 100 42 164 -22
52 -68 75 -148 75 l-68 0 0 -130z"/>
<path d="M3331 1064 c-17 -14 -31 -30 -31 -35 0 -5 36 -9 80 -9 89 0 102 12
54 49 -36 28 -66 26 -103 -5z"/>
<path d="M3710 961 c-37 -10 -41 -57 -6 -71 43 -16 96 15 96 57 0 20 -5 23
-32 22 -18 -1 -44 -4 -58 -8z"/>
<path d="M3243 563 c-22 -8 -14 -23 12 -23 14 0 25 4 25 9 0 11 -21 19 -37 14z"/>
<path d="M3466 557 c-14 -10 -15 -15 -4 -30 15 -20 48 -14 48 8 0 23 -25 36
-44 22z"/>
</g>
</svg>
