<svg version="1.0" xmlns="http://www.w3.org/2000/svg" width="837.333" height="229.333" viewBox="0 0 628 172"><path d="M0 86v86h628V0H0v86zm301 .5c0 50.4-.2 57.5-1.5 57.5s-1.5-7.1-1.5-57.5.2-57.5 1.5-57.5 1.5 7.1 1.5 57.5zM98 38.1c10.6 2.4 23.2 11 29.6 20.2l1.9 2.8 6-2.8c8.4-3.8 19.2-3.9 28.5 0 6 2.5 6.5 2.5 7.4.9 2.3-4.2 12.2-13.2 17.5-16.1 27.2-14.5 60-2 71 27.1.9 2.3 1.7 2.8 4.3 2.8 6.5 0 12.8 6.6 12.8 13.2-.1 7.1-6.3 13.8-12.9 13.8-2.7 0-3.3.7-6.9 8.3-12.2 25-42.2 34.9-67.5 22.1-7.5-3.8-17.7-14.5-21.5-22.4-3.2-6.8-5.2-15.5-5.2-22.6 0-3.5-.5-4.7-3.1-6.8-1.7-1.4-4.2-2.9-5.5-3.2-4.5-1.1-11.2.2-14.9 3-3.4 2.6-3.5 2.8-3.5 9.9 0 21-15.7 40.7-36.5 46.2-23 5.9-47.2-5.3-57.3-26.7-3.3-6.9-4-7.7-6.5-7.8-6.9 0-12.7-6.3-12.7-13.5 0-7.1 5.2-12.8 12.6-13.8 2.4-.3 3.4-1.5 6.7-8.1C52.7 44.1 75.9 33 98 38.1zm399.8 12.6l-.3 3.8-6.7.3-6.8.3V89h-10V55h-13v-8h37.1l-.3 3.7zm36.6-.8c7.1 3.5 10.6 9.4 10.6 18 0 8.5-2.7 13.4-9.4 17.6-4.8 2.9-5.4 3-18.8 3.3l-13.8.4V46.8l13.3.4c11.5.3 13.8.6 18.1 2.7zM563.1 62c3.4 8.2 6.5 14.7 6.8 14.5.2-.3 3.2-6.9 6.6-14.8l6.1-14.2 4.7-.3c2.6-.2 4.7-.2 4.7 0s-4 9.5-8.9 20.8l-8.9 20.5-4.9.3-4.9.3-8.7-20.3c-4.8-11.2-8.7-20.6-8.7-21.1 0-.4 2.2-.7 4.9-.7h4.8l6.4 15zM347 58.9c4.1 2.1 8 8.2 8 12.8V75h-12c-11.2 0-12 .1-12 1.9 0 4.4 8.5 6.6 14.5 3.9 2.3-1 2.9-.9 5.2 1.4l2.5 2.6-2.3 1.5c-5.9 3.9-17.5 3.8-22.8-.1-6.8-5-8.8-13-5.2-20.4 4.2-8.7 14.5-11.6 24.1-6.9zm36.2-.3c4.7 2.4 5.8 6 5.8 18.9V89h-4c-3.4 0-4-.3-4-2.2v-2.1l-2.2 2c-3.9 3.6-12.3 3.5-16.7-.3-2.4-2-3.1-3.4-3.1-6.3 0-6.6 5.7-10.1 16.3-10.1 5.2 0 6.1-1.4 2.8-4.4-1.5-1.4-3.2-1.7-6.8-1.4-2.6.3-5.6.8-6.5 1.2-1.2.6-2.1 0-3.2-2.3-1.5-2.9-1.5-3.1.4-4.1 5.7-3 15.7-3.2 21.2-.4zm37.5-.5c2 .7 2.1 1.1 1 3.9-.9 2.4-1.6 3-3.2 2.5-5.4-1.5-10.1-1.6-11.9-.2-3.3 2.4-1.3 4.3 6 5.7 8.1 1.5 11.4 4.2 11.4 9.2 0 4.5-2.2 7.4-6.7 8.9-4.9 1.6-14.3 1.4-18.7-.5l-3.7-1.5 1.6-3.1c1.2-2.3 2.1-3 3.3-2.5 7.4 3.1 15.2 2.6 15.2-1 0-1.8-.4-2-8.4-3.5-7-1.4-10.6-4.4-10.6-9 0-5.8 2.9-8.7 10-10 3.8-.8 11.2-.2 14.7 1.1zm18.2 9.5c2.4 5.8 4.7 10.2 5.2 9.7.4-.4 2.5-5.1 4.7-10.3l3.9-9.5 4.1-.3c2.3-.2 4.2.1 4.2.6s-3.6 9.2-8 19.3c-9.7 22.5-11.3 24.3-20.2 23.7-7.3-.5-8.5-1.6-6.4-5.7 1.4-2.6 2-3 3.6-2.1 2.9 1.5 5.5 1.2 7.5-1 1.7-1.9 1.6-2.2-2-10.7-2.1-4.9-5.3-12.3-7.1-16.6l-3.3-7.7h9.5l4.3 10.6zM329 115.9c1.5 2.9 1.3 3.1-2.6 3.1-2.1 0-3.3.4-2.9 1 .3.5 1.8 1 3.3 1 2.4.1 2.5.2.9 1.1-2.3 1.3-6.7-1.3-6.7-3.9 0-4.1 6.1-5.8 8-2.3zm11-.9c0 .5-.8.9-1.7.7-2.5-.3-2.8 1.7-.3 2.1 2.6.4 2.6 3.9 0 4.7-1.1.3-2.8.2-3.7-.4-1.6-.9-1.4-1 1-1.1 3.4 0 3.5-1.6.2-2.4-2.4-.6-3.3-2.5-1.8-3.9 1-1.1 6.3-.8 6.3.3zm13 3.2c0 5.5-1.5 7.8-5 7.8-4 0-4.7-1.8-.8-2.2 1.7-.2 3.4-.9 3.6-1.7.3-.9 0-1.1-.7-.6-.7.4-2.3.4-3.7.1-1.8-.5-2.4-1.3-2.4-3.5 0-3.3 1-3.9 5.8-3.8 3.1 0 3.2.2 3.2 3.9zm5.7 2.5c-.2 1.6-.4.5-.4-2.2 0-2.8.2-4 .4-2.8.2 1.3.2 3.5 0 5z"/><path d="M75.5 58.8c-5 2.3-10.1 8-11.4 12.6-1.8 6.7 1.6 14.9 8.1 19.6 10.4 7.5 25.7 7.6 34.1.2 1.8-1.6 1.8-1.5 1.1 1.3-2.2 9.2-11.3 17.6-21 19.7-5.9 1.3-5.1 1.9 2.3 1.9 7.3.1 11.7-1.7 17.3-6.8 14.9-13.3 12.5-36.9-4.7-47-6.3-3.6-19.6-4.4-25.8-1.5zm128.7-.5c-4.7 1.8-9.7 6-11.5 10-5.8 12.1 4.8 26.1 21.1 28.3 5.5.7 15.4-1.6 18.3-4.2 3.1-2.8 3.4-.8.8 4.7-2.9 6.2-9.3 12.1-15.1 13.8-8.3 2.5-8.6 3-1.8 3 7.8.1 13.1-2.1 18.5-7.4 14.4-14.5 10.3-38.4-8-47.1-5.6-2.7-16.4-3.2-22.3-1.1zM513 68v13h7.4c5.9 0 7.8-.4 10-2.1 5.3-4.2 6.8-10 4.2-16.4-2.2-5.2-6.8-7.5-14.8-7.5H513v13zm-179.9-2.4c-1.7 1.4-3.1 3-3.1 3.5s3.6.9 8 .9c8.9 0 10.2-1.2 5.4-4.9-3.6-2.8-6.6-2.6-10.3.5zM371 75.9c-3.7 1-4.1 5.7-.6 7.1 4.3 1.6 9.6-1.5 9.6-5.7 0-2-.5-2.3-3.2-2.2-1.8.1-4.4.4-5.8.8zm-46.7 39.8c-2.2.8-1.4 2.3 1.2 2.3 1.4 0 2.5-.4 2.5-.9 0-1.1-2.1-1.9-3.7-1.4zm22.3.6c-1.4 1-1.5 1.5-.4 3 1.5 2 4.8 1.4 4.8-.8 0-2.3-2.5-3.6-4.4-2.2z"/></svg>